<svg width="259" height="195" viewBox="0 0 259 195" fill="none" xmlns="http://www.w3.org/2000/svg">
<g clip-path="url(#clip0_27_80)">
<path fill-rule="evenodd" clip-rule="evenodd" d="M58.4784 107.937C59.6592 107.129 62.0741 104.237 63.3393 103.569C66.1526 102.083 78.6857 99.1612 79.0932 98.9886C79.7139 98.7257 83.7459 97.8072 86.0949 97.2269C91.6112 95.8642 111.379 87.0617 116.59 84.8047C117.255 86.5617 122.746 94.3182 121.804 95.113C118.702 97.7301 113.143 100.989 109.551 102.864C106.645 104.381 103.567 105.636 100.46 106.661C96.9329 107.825 94.5117 109.072 90.9961 110.263C87.5373 111.434 91.6708 115.097 93.4471 115.854C95.4394 116.703 98.5255 117.134 100.561 117.87C96.977 123.462 93.967 130.249 93.3648 136.948C93.2199 138.56 91.9956 140.038 90.0044 139.556C88.9768 139.306 79.4962 138.039 77.9502 137.685C67.63 135.322 49.1031 122.95 53.8741 110.263C54.967 110.77 57.4624 108.632 58.4784 107.937Z" fill="#111111"/>
<path fill-rule="evenodd" clip-rule="evenodd" d="M64.2521 40.625C65.023 40.5597 67.0164 39.0136 65.9705 38.2318C64.9152 37.4428 64.1568 40.0866 64.2521 40.625ZM24.0904 46.5544C24.2919 46.5188 24.2039 45.4116 23.8867 45.2701C22.8852 44.8239 22.8006 46.5013 22.7762 46.9502C22.7457 47.5167 22.675 49.1125 23.8927 48.675C24.584 48.4267 24.1551 46.9791 24.0904 46.5544ZM83.214 51.7265C83.1868 52.7148 85.1755 54.615 85.9171 53.4751C86.5406 52.5175 83.2651 49.7594 83.214 51.7265ZM12.8995 29.439C13.4757 30.9145 16.3254 28.9035 16.4313 27.8212C16.6487 25.6046 12.8697 27.9642 12.8995 29.439ZM36.6747 35.8008C38.0018 35.6913 39.7481 33.9976 41.0278 33.3648C41.8938 32.9366 44.2502 32.4263 44.5065 31.4542C44.7296 30.6094 40.7314 32.4175 40.39 32.5781C38.8215 33.3158 37.4072 34.1567 36.6747 35.8008ZM136.303 24.1211C137.361 23.3 138.647 22.7704 140.003 22.8051C140.68 22.8224 142.092 23.2477 142.145 22.0721C142.232 20.1606 136.252 22.4918 135.317 22.8668C135.646 23.2851 135.975 23.7031 136.303 24.1211ZM70.3143 98.6138C69.5383 97.3202 68.1425 96.5723 67.093 95.4687C67.4776 97.2808 66.6104 98.8926 66.0145 100.547C67.4479 99.9025 68.8809 99.2582 70.3143 98.6138ZM205.077 126.191C205.504 124.755 205.933 123.326 206.433 121.911C206.992 120.327 207.27 120.19 205.931 119.082C204.82 121.191 203.708 123.3 202.597 125.409C203.388 125.746 204.214 126.075 205.077 126.191ZM90.0428 22.1824C88.5712 20.5173 81.6743 20.4127 82.5278 24.0879C82.8256 25.3712 84.5212 24.0079 85.5834 23.7088C86.6377 23.4118 89.6227 23.3723 90.0428 22.1824ZM89.7899 45.7577C89.6115 45.3327 89.2553 43.7989 88.7267 43.678C88.2118 43.5602 86.1798 45.169 85.7978 45.4146C83.8925 46.6402 82.0352 47.9586 80.1786 49.2578C80.8895 49.2578 81.5349 49.0037 82.2416 48.9982C83.0813 48.991 83.6837 49.3372 84.5023 49.1397C86.2614 48.7157 88.3031 46.759 89.7899 45.7577ZM91.6961 7.76196C91.8614 7.00031 100.484 9.2867 101.521 9.70536C102.085 9.93307 104.998 11.4532 104.372 9.16214C104.016 7.85726 100.65 6.86254 99.5709 6.50491C96.8284 5.59621 93.9369 4.94984 91.0167 5.09974C90.4496 5.12865 86.1553 5.37742 87.9485 7.11024C88.5664 7.707 90.7813 7.51891 91.6961 7.76196ZM93.5839 112.408C95.1904 113.201 96.8306 113.808 98.5098 114.429C99.2558 114.704 100.418 115.426 101.241 115.245C101.915 115.096 102.131 114.065 102.485 113.376C103.779 110.852 105.325 108.817 107.242 106.736C106.352 106.085 101.834 108.959 100.716 109.383C99.597 109.808 98.5411 110.236 97.4459 110.743C96.4146 111.221 94.3796 111.649 93.5839 112.408ZM122.029 90.8984C124.371 89.8349 126.59 87.9488 128.51 86.2602C130.715 84.3211 132.691 82.2891 134.306 79.7801C133.334 79.8299 131.19 82.9661 131.166 79.5517C131.154 77.8098 133.531 76.0942 134.269 74.4785C132.433 73.4381 130.751 79.6552 128.644 78.1483C126.615 76.6961 129.817 71.7036 130.434 70.1283C129.243 69.3334 122.462 78.2318 121.48 79.3704C120.866 80.0831 119.415 81.032 119.068 81.8633C118.862 82.3582 118.832 83.9286 118.932 84.3839C119.14 85.3359 120.192 86.4759 120.66 87.3623C121.253 88.4844 121.769 89.6507 122.029 90.8984ZM218.823 122.98C216.799 120.111 218.89 118.86 220.536 116.479C221.853 114.574 223.065 112.474 223.899 110.347C225.987 105.027 227.87 100.081 228.901 94.4531C227.482 95.1033 226.595 97.5777 225.886 98.8816C224.931 100.634 224.092 102.474 223.031 104.173C221.046 107.351 219.097 110.741 216.572 113.495C215.428 114.744 214.459 116.148 213.14 117.273C212.537 117.787 211.383 118.209 210.939 118.851C210.519 119.458 210.988 119.846 210.829 120.57C210.666 121.314 209.917 122.106 209.595 122.822C209.173 123.762 208.78 124.705 208.308 125.624C207.794 126.627 207.654 127.151 207.515 128.131C207.364 129.202 207.828 129.314 206.896 130.301C208.585 131.049 210.274 131.796 211.963 132.544C212.533 132.796 213.103 133.048 213.673 133.301C213.793 133.075 213.914 132.849 214.034 132.622C214.498 132.17 214.925 131.054 215.19 130.456C216.3 127.962 217.553 125.457 218.823 122.98ZM55.7255 110.937C50.9298 123.611 67.7822 134.283 78.156 136.644C79.593 136.97 80.9952 137.398 82.4255 137.749C83.985 138.132 85.3699 138.056 86.9266 138.216C88.1651 138.343 88.7553 139.304 89.9224 139.569C91.8726 140.011 91.7532 138.54 91.893 136.963C92.4849 130.279 95.883 123.83 99.4796 118.253C97.8367 117.663 96.2089 117.019 94.5872 116.373C93.1994 115.82 91.0743 114.266 89.5824 114.183C88.479 114.123 86.7978 115.069 85.7261 115.484C83.9413 116.175 82.1513 116.764 80.2913 117.236C77.0385 118.06 73.4191 119.184 70.0534 119.269C69.083 119.294 66.4212 119.747 65.723 119.145C64.3915 117.997 66.2396 117.041 67.3543 116.631C73.9973 114.189 81.0508 113.151 87.7128 110.647C91.1408 109.358 94.5336 107.919 97.9835 106.65C100.957 105.556 104.072 104.587 106.946 103.241C110.741 101.464 114.552 99.2507 117.838 96.6429C118.496 96.1211 119.874 95.346 120.325 94.5898C120.722 93.9241 120.673 94.588 120.59 93.7808C120.531 93.201 119.824 92.4153 119.534 91.8675C118.451 89.8253 117.472 87.7275 116.649 85.5664C111.407 87.8236 106.42 90.8959 101.254 93.308C96.0558 95.736 90.1916 97.449 84.6301 98.8149C82.2629 99.3965 79.5416 99.5802 77.3708 100.729C76.4483 101.217 75.5364 101.782 74.5485 102.064C74.2567 102.626 73.9695 102.736 73.6866 102.394C73.5092 102.195 73.2801 102.11 72.9989 102.141C72.3946 102.244 71.7783 102.531 71.2131 102.751C68.3527 103.864 65.6139 105.258 62.8982 106.68C61.6111 107.354 60.291 108.018 59.0591 108.787C58.3989 109.2 57.8073 109.616 57.267 110.182C56.6194 110.861 56.7736 111.42 55.7255 110.937ZM163.64 35.6814C164.852 35.7011 165.957 35.0422 167.221 35.0788C169.208 35.1365 170.781 36.6834 171.935 38.175C174.217 41.1266 173.635 44.6871 172.488 47.9901C171.94 49.5686 171.187 51.0838 170.246 52.4657C169.413 53.6889 167.923 54.8459 167.342 56.2081C166.383 58.4543 168.317 57.4992 169.502 57.0193C170.991 56.4157 172.388 55.6653 173.652 54.6546C179.286 50.1498 183.573 43.8882 185.008 36.6971C185.709 33.1886 185.655 29.087 183.22 26.2234C180.995 23.605 177.152 22.7494 173.868 23.2349C170.317 23.7601 167.1 25.2697 164.209 27.213C163.369 27.7776 162.6 28.394 161.811 29.0254C160.777 29.8539 160.157 29.8757 160.416 31.1742C160.608 32.1396 161.132 33.1397 161.469 34.066C162.101 35.8011 161.871 36.25 163.64 35.6814ZM167.504 65.5919L167.259 66.0125C168.949 66.0934 170.524 64.5964 171.964 63.8655C173.836 62.9157 175.497 61.62 177.137 60.3116C180.028 58.0038 182.958 55.4032 185.11 52.3736C189.935 45.5822 194.318 36.9721 193.001 28.3616C191.582 19.0815 183.496 15.5093 174.881 16.7378C170.998 17.2914 167.532 19.0315 164.057 20.7981C162.306 21.6888 160.827 22.8441 159.223 23.9624C158.39 24.5431 157.63 24.6184 157.576 25.6336C157.535 26.3987 158.852 28.1287 159.209 28.8219C163.572 24.3541 168.273 20.658 174.862 20.4297C182.7 20.158 187.335 27.6188 187.301 34.7632C187.267 41.7696 184.257 48.5093 179.458 53.5448C177.277 55.8332 175.198 57.6695 172.52 59.3396C171.185 60.1722 170.2 60.9197 168.707 61.4725C167.652 61.8638 167.762 61.6576 167.492 62.6387C167.264 63.4713 167.497 64.7273 167.504 65.5919ZM124.913 160.784C124.811 162.047 124.555 163.29 124.271 164.521C124.169 164.963 123.593 166.36 123.694 166.857C123.861 167.679 123.639 167.15 124.356 167.579C125.105 168.027 125.976 168 126.795 168.136C127.301 168.219 129.153 169.095 129.465 168.957C130.01 168.715 129.992 167.863 130.59 167.525C131.405 167.065 132.605 167.459 133.373 167.819C135.427 168.781 136.838 170.772 138.825 171.862C142.355 173.796 146.543 174.868 150.48 175.31C152.613 175.549 154.796 175.969 156.903 175.468C158.562 175.072 160.72 175.109 161.622 173.321C153.604 171.107 141.366 168.399 138.195 159.161C136.472 160.73 133.592 159.885 131.509 159.669C129.218 159.431 127.17 159.486 125.075 158.437C124.922 159.262 124.875 159.946 124.913 160.784ZM53.9207 103.574C57.6952 103.803 61.2735 102.01 63.5963 98.9846C64.168 98.2394 64.7543 97.4788 65.0976 96.5961C65.1721 96.3725 65.2462 96.1485 65.3207 95.9248C65.681 95.3069 65.5232 95.0154 64.8476 95.0502C64.467 94.5263 63.5019 94.3501 63.7764 93.4002C63.9832 92.6835 64.7461 92.6719 65.4094 92.4465C65.0792 91.8895 64.8816 91.6099 64.4088 91.1144C63.1802 92.2239 60.9507 94.4014 60.0874 91.8526C59.6728 90.6291 60.4028 89.4595 60.2219 88.2793C60.1474 87.7912 59.531 86.5442 59.1738 86.2524C57.271 84.6973 54.5304 85.3409 52.5116 86.2562C51.1202 86.8871 50.8208 87.1832 50.5938 88.6296C50.3633 90.1002 50.1494 91.5702 49.8937 93.0366C50.7286 92.5998 50.8808 91.6563 51.4252 90.9769C51.6291 91.3497 51.8331 91.7228 52.0377 92.0956C52.325 91.9338 52.5935 91.9422 52.8425 92.1216C53.2454 92.7433 52.9918 93.6654 52.868 94.3174C54.2115 94.1915 54.7794 95.6962 53.4248 96.3057C52.0217 96.9369 51.389 95.2159 51.3415 94.1011C50.818 94.7288 50.2803 94.393 49.9153 94.7154C49.5507 95.0379 49.4071 95.7099 49.2773 96.446C49.0641 97.6553 48.5186 99.4003 49.0233 100.614C49.7727 102.415 52.1622 103.353 53.9207 103.574ZM163.294 45.6968C162.045 47.4403 159.916 49.7227 159.471 51.8292C160.846 51.0188 163.754 47.1196 164.504 50.2257C164.934 52.0086 162.728 54.1331 162.186 55.8594C164.355 55.1429 165.9 52.8988 167.254 51.1669C168.98 48.9588 170.742 46.0478 171.183 43.24C171.539 40.9678 169.969 38.85 167.636 38.6274C166.444 38.5134 165.2 38.7034 164.048 38.9809C163.523 39.1071 162.74 39.264 162.272 39.5465C161.683 39.901 161.603 40.7314 161.049 40.0406C160.312 41.4338 159.576 42.827 158.84 44.2199C159.572 43.9529 161.068 42.82 161.868 42.9371C163.038 43.1084 163.278 44.8136 163.294 45.6968ZM46.3571 11.5894C43.0828 11.6863 39.6605 12.3862 36.5609 13.4267C35.7911 13.6853 32.5438 14.605 33.2276 15.9382C33.6796 16.8194 36.1167 15.5742 36.8534 15.3665C40.0109 14.4764 43.2621 13.8894 46.4963 13.3536C47.2795 13.224 49.936 13.2368 50.0731 12.2063C50.241 10.9489 47.2817 11.588 46.3571 11.5894ZM135.467 155.001C133.693 155.219 131.989 155.137 130.212 154.919C128.717 154.736 127.195 154.121 125.707 154.121C125.707 155.72 125.599 155.73 127.279 156.072C128.452 156.31 129.641 156.445 130.826 156.611C132.912 156.904 135.229 157.726 137.341 157.304C137.289 157.026 137.128 155.153 136.909 154.968C136.786 154.864 135.647 155.003 135.467 155.001ZM106.784 36.7345C107.281 37.0519 108.421 38.3175 109.013 38.3398C108.801 36.8745 107.173 34.3232 105.303 35.2288C104.845 35.4508 103.882 36.5564 104.317 37.0442C104.55 37.3049 106.176 36.7361 106.784 36.7345ZM89.4818 49.7698C89.4998 49.5145 89.5182 49.2592 89.537 49.0039C88.8507 49.409 88.001 49.6006 87.5135 50.2532C88.0989 50.5136 88.6839 50.7744 89.2697 51.0351C89.3404 50.6134 89.4111 50.1916 89.4818 49.7698ZM143.527 88.6731C146.769 89.8128 149.742 91.3351 152.128 93.9193C154.191 96.1537 155.161 100.091 155.664 103.02C156.91 110.268 154.506 116.986 152.92 123.92C152.116 127.437 150.915 130.822 149.791 134.248C148.809 137.24 147.968 140.374 146.613 143.219C145.464 145.631 143.996 148.009 142.985 150.512C142.442 151.859 141.56 156.48 139.496 155.029C138.933 156.508 138.796 156.382 139.398 157.409C139.834 158.152 141.312 159.184 142.01 159.79C143.869 161.404 146.224 162.734 148.405 163.863C152.4 165.933 156.682 167.482 160.796 169.368C162.614 170.203 164.587 171.189 164.178 173.578C163.837 175.58 162.683 177.098 160.882 177.989C159.193 178.826 156.775 179.472 154.916 179.734C153.813 179.89 153.56 179.429 152.661 179.27C151.66 179.093 150.492 179.435 149.459 179.426C144.824 179.386 140.765 178.215 137.02 175.516C135.681 174.552 133.711 171.936 131.959 171.937C131.064 171.937 131.253 172.483 130.465 172.803C129.493 173.198 127.818 172.452 126.863 172.277C124.827 171.904 122.756 171.525 121.401 169.765C119.935 167.863 120.456 165.506 121.086 163.394C121.796 161.012 122.99 158.596 123.498 156.179C123.622 155.591 123.736 154.495 123.61 153.897C123.415 152.968 122.481 152.415 122.453 151.409C122.444 151.104 122.88 150.7 122.957 150.385C123.125 149.692 123.099 148.973 123.168 148.267C123.292 147.009 123.578 145.803 123.775 144.56C124.223 141.73 125.107 139.206 125.963 136.479C126.793 133.833 127.583 131.864 129.188 129.572C130.019 128.386 132.799 124.158 131.441 122.941C129.583 126.605 127.411 129.462 124.568 132.378C122.393 134.609 120.267 137.608 117.545 139.196C114.553 140.943 110.896 141.971 107.592 142.894C106.02 143.333 104.716 144.307 103.021 144.488C101.185 144.683 99.316 144.453 97.5177 144.042C97.0114 143.926 95.5514 143.145 95.0932 143.195C94.4184 143.268 93.4477 144.476 92.7071 144.698C90.9045 145.237 89.6735 144.206 88.3062 143.253C86.8223 142.219 86.3733 141.962 84.661 141.837C82.5636 141.685 80.5239 140.943 78.461 140.489C74.834 139.69 71.7512 138.071 68.4545 136.376C64.6754 134.434 61.443 131.755 58.5945 128.591C54.4072 123.939 48.5758 111.049 55.4158 106.536C51.3891 105.987 47.701 104.222 47.2102 99.6467C46.9537 97.2526 47.4364 94.6007 48.0361 92.293C48.3098 91.2392 48.6362 90.1922 48.9489 89.1493C49.1842 88.7972 49.309 88.4118 49.3219 87.993C49.4663 87.4504 49.258 87.18 48.697 87.1825C47.6363 85.9377 46.8389 84.8388 46.6246 83.0711C46.5571 82.5109 46.4967 81.6521 46.8937 81.1758C47.0774 80.9844 47.2991 80.8564 47.558 80.7923C48.1795 80.8279 48.3551 80.5205 48.085 79.8704C48.3868 78.9492 47.9392 78.2314 49.0764 77.8468C49.441 77.9247 49.804 78.01 50.1655 78.102C50.6267 78.3132 50.9268 78.1602 51.0662 77.6444C52.1377 77.2235 51.6434 76.6012 53.0993 77.1427C53.9804 77.4706 54.8186 78.035 55.4601 78.7225C56.265 78.2039 54.4346 74.9982 54.3735 73.9755C54.2287 71.5648 55.2216 69.5715 56.5133 67.5912C59.0242 63.7432 62.5289 60.4342 65.9848 57.457C72.6046 51.7553 79.5588 46.3272 87.0334 41.7846C83.9499 39.6348 80.3475 39.0521 76.6784 40.0512C73.296 40.9724 70.5543 42.6452 67.4406 44.1086C64.5563 45.4638 61.4946 46.0205 60.5749 42.3223C59.5445 38.1799 62.8321 36.6421 65.781 34.7845C65.0447 34.2331 62.6206 34.6273 61.7037 34.6925C59.6615 34.8374 57.7085 35.3003 55.7239 35.7096C54.7722 35.9056 53.8978 35.8615 52.9549 36.0537C51.5531 36.3392 50.0896 36.6594 48.6713 37.0662C45.2973 38.035 41.9482 39.5051 39.0327 41.486C36.5127 43.1973 34.7646 45.6136 32.7343 47.8392C30.4188 50.3769 28.2003 52.8736 24.7676 53.8025C23.1603 54.2376 21.2748 54.6324 20.1351 53.1912C19.0749 51.8512 19.0159 50.2362 19.0506 48.5976C19.1272 44.9783 20.869 41.0672 22.8951 38.1097C25.0943 34.8994 28.0397 33.0609 30.8228 30.4768C26.8003 30.7655 22.9126 32.8942 19.2133 34.3653C18.4348 34.6752 17.6489 35.0232 16.8662 35.3098C16.0314 35.6155 15.4785 35.4283 14.6789 35.5682C12.8538 35.888 11.2862 36.6601 9.51106 35.429C6.15249 33.1004 9.51738 28.3633 11.8297 26.9097C15.0506 24.8854 18.3273 23.1809 21.8755 21.7368C19.9546 19.6452 21.5952 16.6602 23.3658 15.1763C25.6062 13.2987 28.4588 12.2227 31.1583 11.2176C33.2932 10.4226 35.3899 9.65937 37.6077 9.18097C39.9391 8.67824 42.6652 7.91005 45.031 7.98373C47.2495 8.05283 49.2169 7.66045 51.4639 7.59769C53.3336 7.54552 55.2075 7.59064 57.0769 7.54199C62.1066 7.41155 67.155 7.75211 72.0706 8.11523C68.1759 -3.31779 93.8299 0.212943 99.303 1.70632C104.277 3.06362 109.976 4.63808 114.154 7.85858C115.924 9.22257 117.605 10.7734 119.175 12.3648C121.492 14.7127 122.775 17.7876 124 20.8227C127.108 19.2941 130.081 17.6283 133.482 16.8703C136.718 16.1494 140.033 15.1721 143.288 14.6274C145.763 14.2132 149.355 13.9322 151.438 15.6865C153.7 17.592 154.879 20.5572 156.23 23.0966C162.715 16.9193 169.948 12.4127 179.195 12.7124C188.242 13.0057 194.192 20.8491 195.289 29.3486C196.497 38.714 192.341 48.5003 186.708 55.7528C184.182 59.0054 181.568 62.1466 178.168 64.5731C176.482 65.776 174.704 67.0938 172.855 68.033C171.933 68.5012 170.925 68.9242 169.958 69.2845C169.521 69.447 169.071 69.6103 168.617 69.7206C167.32 70.0365 167.572 69.6149 167.089 70.7546C166.698 71.6801 166.746 73.2722 166.579 74.2878C166.387 75.4488 166.273 76.6256 165.994 77.7706C165.509 79.7554 165.005 81.6916 164.398 83.6299C163.249 87.2981 161.703 90.9953 159.81 94.3413C161.416 95.0414 163.664 95.1119 165.381 95.3242C167.238 95.5537 169.098 96.0359 171.027 96.5775C174.893 97.6626 178.348 98.5785 182.024 100.203C185.84 101.89 189.241 104.408 192.916 106.412C196.296 108.255 199.711 110.564 202.85 112.776C203.596 113.303 204.059 113.76 204.653 114.427C205.261 115.108 205.455 115.241 206.181 115.831C206.509 116.097 207.462 117.439 207.836 117.488C208.506 117.577 208.403 117.075 208.929 116.375C210.027 114.912 211.559 113.778 212.649 112.278C213.559 111.027 214.507 109.761 215.479 108.685C217.832 106.082 219.782 103.196 221.454 100.076C222.325 98.4512 223.241 96.905 224.187 95.3717C225.128 93.8452 226.801 91.8304 228.675 91.9207C228.525 91.1433 228.046 91.014 228.872 90.5387C229.404 90.2324 230.44 90.7259 230.851 91.0369C231.936 91.8604 231.984 93.4581 231.916 94.6582C231.74 97.7511 231.095 100.804 230.196 103.728C229.116 107.244 227.763 110.346 226.285 113.701C225.109 116.374 223.649 119.909 220.722 121.128C222.688 123.945 221.744 126.241 220.43 129.232C219.47 131.419 218.202 133.678 216.27 135.125C214.093 136.756 211.731 135.373 209.454 134.294C208.079 133.643 203.873 132.106 204.728 130.102C203.677 129.961 203.017 129.195 202.06 128.959C201.048 128.71 201.222 129.123 200.15 129.277C199.329 129.396 198.101 128.658 197.327 128.393C196.036 127.952 194.748 127.5 193.458 127.054C189.827 125.798 186.257 124.562 182.59 123.557C175.768 121.685 168.862 120.624 162.063 118.953C160.701 118.618 159.346 118.295 157.927 118.026C157.634 117.971 156.114 117.886 155.929 117.571C155.605 117.019 156.6 113.932 156.685 113.303C157.246 109.172 157.063 104.65 156.273 100.567C155.945 98.8693 154.481 96.6712 154.494 95.0143C154.503 93.9027 155.484 92.6889 156.06 91.682C157.485 89.1924 158.978 86.5024 160.034 83.9116C161.65 79.9483 162.64 75.4745 163.354 71.2295C163.725 69.0166 164.158 66.6175 164.259 64.3789C164.337 62.6726 164.197 60.8827 164.444 59.1351C163.503 59.2247 162.172 59.714 161.324 59.1901C160.254 58.5291 159.967 56.6419 160.104 55.5148C156.44 56.1568 156.561 52.6687 156.788 49.9411C150.166 49.9411 158.647 40.0632 159.706 37.9419C160.193 36.9668 160.179 38.0621 159.964 36.5539C159.869 35.8908 159.418 35.1561 159.162 34.5466C158.606 33.2157 158.004 31.9053 157.362 30.6143C156.004 27.8873 154.466 25.2524 152.787 22.712C151.276 23.7689 149.914 25.0201 148.652 26.3626C149.462 24.2374 151.935 21.6046 150.877 19.1915C149.896 16.9546 146.622 17.1097 144.688 17.5186C139.433 18.6309 134.393 20.2509 129.387 22.1264C130.937 23.019 133.312 22.3295 134.852 21.6469C136.76 20.8015 138.812 19.9145 140.868 19.4668C142.662 19.0762 145.017 19.2095 144.499 21.6343C144.079 23.599 142.164 25.4911 140.901 26.9601C138.118 30.1969 134.629 32.7024 131.201 35.2058C127.516 37.8971 123.966 40.8211 120.235 43.4342C113.49 48.1583 106.238 52.264 99.269 56.6737C95.6476 58.9648 91.5443 60.8086 87.6173 62.5069C83.2972 64.375 79.1552 66.375 74.6731 67.8504C72.1841 68.67 69.7171 69.3445 67.2713 70.2769C65.7381 70.8611 63.0685 72.0319 62.0557 70.297C59.9984 66.7733 67.4431 62.1392 69.4832 59.9848C70.8905 61.3569 63.9503 66.4698 64.4934 68.4677C64.9203 70.0376 66.5711 68.0104 67.3682 67.5824C68.6565 66.8907 70.1823 66.5431 71.4769 65.7541C74.1324 64.1356 77.2809 62.2692 77.8873 58.9236C77.4654 58.4766 77.4706 58.0641 77.9031 57.6858C78.0956 57.456 78.2484 57.2035 78.3609 56.9282C78.5499 56.4025 78.6257 55.744 78.7269 55.1866C79.0259 53.5388 78.2755 51.9961 78.9767 50.3836C74.8843 53.4965 70.9502 57.0128 67.0654 60.3828C63.5807 63.4055 59.9446 67.3635 58.6641 71.874C58.5 72.4518 58.2274 73.1075 58.2573 73.7174C58.3156 74.9146 58.4347 74.6566 59.3955 75.0416C60.3567 75.4266 61.756 75.3934 62.7896 75.4343C63.3787 75.4572 66.0097 74.8311 65.4866 76.1288C65.1852 76.8769 63.3612 76.8487 62.7081 76.9178C61.0692 77.0916 60.1804 76.9132 60.9568 78.6967C61.3049 79.496 62.01 80.0375 62.5633 80.6562C64.1028 82.3773 64.9389 85.0172 66.1499 87.0394C67.5299 89.3429 69.0465 91.5336 70.6579 93.6792C71.323 94.5644 72.2118 96.2281 73.1337 96.8598C73.9944 97.4497 72.9815 97.401 74.4114 97.1613C75.0346 97.0573 75.5995 96.6501 76.1957 96.5045C79.7601 95.6326 83.424 94.6501 87.1103 93.5741C91.8253 92.1978 96.7736 91.0242 101.272 89.0422C105.302 87.2661 109.302 85.1518 113.374 83.3532C114.563 82.8282 115.751 82.4803 116.676 81.5139C117.791 80.3481 118.715 78.8216 119.744 77.5683C121.494 75.4364 123.107 73.2679 124.99 71.2475C126.392 69.7442 128.877 66.9496 130.856 66.3496C134.614 65.2098 132.602 70.957 132.116 72.4095C133 72.6108 133.464 71.4731 134.502 71.8003C135.743 72.1923 135.872 73.85 136.027 74.8886C136.068 75.1653 135.695 75.6825 135.808 75.9293C135.847 76.0135 136.657 76.4944 136.814 76.7172C137.381 77.527 137.269 78.5117 137.054 79.3849C135.942 83.9081 131.988 87.2111 129.08 90.5475C130.381 90.3004 131.346 89.5562 132.574 89.1874C133.726 88.8412 134.885 88.8592 136.047 88.7601C137.263 88.6561 138.431 88.1992 139.676 88.176C140.982 88.1516 142.232 88.525 143.527 88.6731Z" fill="#111111"/>
<path fill-rule="evenodd" clip-rule="evenodd" d="M6.00372 47.9883C5.28667 48.4588 5.08455 48.9204 5.05979 50.0058C5.04989 50.451 5.08047 52.1118 5.70024 52.049C6.28186 51.9902 6.00372 48.5593 6.00372 47.9883ZM2.29962 50.6932C2.63374 47.2143 3.90159 43.6772 6.8841 41.5096C7.62169 40.9735 8.45608 40.9926 9.26447 40.6544C9.7503 40.4512 10.5179 39.5067 11.0694 39.6185C13.0998 40.0308 10.7541 42.7391 10.4106 43.4515C9.3461 45.6586 9.41798 47.5981 9.44977 49.979C9.47397 51.7887 9.84855 54.8394 8.93974 56.4773C7.97098 58.2213 5.86982 57.0889 4.69697 56.0565C3.21674 54.7534 2.09879 52.6782 2.29962 50.6932Z" fill="#111111"/>
<path fill-rule="evenodd" clip-rule="evenodd" d="M37.9419 60.9735C37.9419 62.9147 39.5115 61.6005 39.4554 60.2197C39.3734 58.1868 37.8688 59.4386 37.9419 60.9735ZM46.286 50.2419C44.5681 51.7928 43.2431 52.663 42.9121 55.0476C42.6614 56.854 42.9106 58.643 42.9212 60.4625C42.9392 63.5124 40.4858 66.7188 37.8456 63.2227C35.9199 60.6727 36.6106 56.6629 38.181 54.1001C39.0051 52.7555 40.1815 51.4254 41.5404 50.5874C42.5626 49.9568 45.4378 48.7161 46.286 50.2419Z" fill="#111111"/>
<path fill-rule="evenodd" clip-rule="evenodd" d="M22.2961 97.2461C22.0969 97.7191 21.6294 99.6503 22.5833 99.2135C23.4254 98.8276 22.8798 97.5476 22.2961 97.2461ZM17.2559 91.2837C17.1086 90.5575 17.1686 86.005 18.4177 86.3464C19.3989 86.6141 19.561 88.9443 19.9607 89.7555C21.4492 92.7755 24.8655 94.6564 26.0436 97.7736C27.3586 101.255 23.3829 101.363 21.2733 99.953C18.7754 98.2837 17.33 94.1968 17.2559 91.2837Z" fill="#111111"/>
<path fill-rule="evenodd" clip-rule="evenodd" d="M14.1936 72.6172C14.7357 71.8824 14.7905 71.4898 14.4815 70.8398C14.0865 71.2712 14.1566 71.8876 14.1936 72.6172ZM14.5859 75.9041C11.7598 76.2217 11.6183 70.9933 12.1023 69.1983C12.4877 67.7687 13.3163 66.2324 14.1693 65.0675C14.3416 64.8325 15.9756 62.7201 16.2959 62.715C17.525 62.6957 17.1872 64.0897 17.0547 64.6088C16.6371 66.2438 16.4716 67.6104 16.584 69.4234C16.7046 71.3632 17.6196 75.9684 14.5859 75.9041Z" fill="#111111"/>
<path fill-rule="evenodd" clip-rule="evenodd" d="M142.905 30.6257C138.864 34.0277 135.028 37.7109 130.634 40.6867C128.483 42.143 126.236 43.4314 124.09 44.9115C122.997 45.6653 121.882 46.3401 120.67 46.8943C119.599 47.3838 118.899 47.4475 119.788 46.2856C120.382 45.5094 121.713 44.9685 122.522 44.4167C123.767 43.5671 124.943 42.6244 126.252 41.8706C128.561 40.5409 130.856 39.4675 132.984 37.8368C134.873 36.3899 136.822 34.977 138.625 33.4393C139.398 32.7798 141.962 29.7523 142.905 30.6257Z" fill="#111111"/>
<path fill-rule="evenodd" clip-rule="evenodd" d="M142.987 42.9102C144.804 44.4708 140.257 48.746 139.22 49.7149C138.127 50.7368 136.923 51.6483 135.733 52.5536C135.315 52.8725 133.031 55.0061 132.451 54.8339C131.307 54.494 132.809 53.1097 133.2 52.7487C134.463 51.5798 135.752 50.4453 136.987 49.245C138.101 48.1633 139.307 47.1615 140.384 46.0449C141.256 45.1403 141.989 43.6073 142.987 42.9102Z" fill="#111111"/>
<path fill-rule="evenodd" clip-rule="evenodd" d="M8.34656 105.817C7.87206 104.713 7.02227 105.939 7.45308 106.49C7.86053 107.012 8.28588 106.029 8.34656 105.817ZM5.56433 103.637C5.8187 102.014 6.40658 101.112 7.92326 102.498C8.96547 103.45 11.0615 106.157 10.8626 107.632C10.6016 109.568 8.47792 109.019 7.37707 108.007C6.24866 106.969 5.75052 105.077 5.56433 103.637Z" fill="#111111"/>
<path fill-rule="evenodd" clip-rule="evenodd" d="M8.88792 135.58C7.02996 135.438 5.44485 134.006 4.65582 132.328C3.99196 130.916 3.36361 128.642 5.69591 129.383C7.21596 129.867 13.0757 135.807 8.88792 135.58Z" fill="#111111"/>
<path fill-rule="evenodd" clip-rule="evenodd" d="M31.4047 126.379C29.9689 126.708 28.5486 125.758 27.6656 124.688C27.1163 124.021 25.8377 121.684 26.4819 120.722C27.3798 119.38 28.7356 122.077 29.2033 122.611C29.9368 123.447 32.3354 125.046 31.4047 126.379Z" fill="#111111"/>
<path fill-rule="evenodd" clip-rule="evenodd" d="M32.6979 89.8828C31.5725 89.3586 30.5275 88.7274 30.075 87.475C29.7871 86.6774 29.5453 84.2858 30.8235 84.2969C32.302 84.3101 35.6878 89.6433 32.6979 89.8828Z" fill="#111111"/>
<path fill-rule="evenodd" clip-rule="evenodd" d="M24.8071 65.0007C26.3141 64.9733 26.6709 65.8076 26.8805 67.0064C27.0227 67.82 27.7131 70.5817 26.9961 71.1474C25.9718 71.9558 24.3423 70.1035 24.0129 69.3763C23.3339 67.8794 24.2727 66.4068 24.8071 65.0007Z" fill="#111111"/>
<path fill-rule="evenodd" clip-rule="evenodd" d="M50.7018 147.808C51.4355 148.144 53.1049 148.887 52.467 150.04C51.8001 151.246 49.8852 150.074 49.1698 149.547C48.8704 149.326 46.9678 147.882 47.0473 147.398C47.2151 146.369 49.8378 147.712 50.7018 147.808Z" fill="#111111"/>
<path fill-rule="evenodd" clip-rule="evenodd" d="M2.35893 72.4922C2.86034 73.7527 3.42475 78.0828 0.784368 75.7445C-0.0214092 75.0309 -0.143008 74.1396 0.134619 73.1598C0.536042 71.7399 1.12023 72.0214 2.35893 72.4922Z" fill="#111111"/>
<path fill-rule="evenodd" clip-rule="evenodd" d="M142.282 56.3672C141.698 55.168 143.141 54.3946 143.913 53.6218C144.416 53.1169 146.534 50.379 147.228 50.5337C148.657 50.8519 142.985 55.8324 142.282 56.3672Z" fill="#111111"/>
<path fill-rule="evenodd" clip-rule="evenodd" d="M24.7881 143.225C26.1658 143.003 26.4872 144.539 27.3749 145.209C27.7555 145.496 29.0622 145.749 28.7993 146.358C28.1087 147.96 24.7206 144.302 24.7881 143.225Z" fill="#111111"/>
<path fill-rule="evenodd" clip-rule="evenodd" d="M36.4219 106.943C37.3688 106.545 40.102 108.683 39.3173 109.606C38.1441 110.988 36.4887 107.699 36.4219 106.943Z" fill="#111111"/>
<path fill-rule="evenodd" clip-rule="evenodd" d="M56.3824 137.867C55.6921 137.936 52.7791 137.017 53.8584 135.786C54.6161 134.922 56.6301 137.085 56.3824 137.867Z" fill="#111111"/>
<path fill-rule="evenodd" clip-rule="evenodd" d="M21.499 131.962C20.8137 132.237 18.3421 131.671 19.1192 130.594C19.8595 129.568 21.5 131.111 21.499 131.962Z" fill="#111111"/>
<path fill-rule="evenodd" clip-rule="evenodd" d="M41.7334 136.611C42.5346 136.527 43.1134 137.012 43.251 137.834C42.2489 137.977 41.9398 137.738 41.7334 136.611Z" fill="#111111"/>
<path fill-rule="evenodd" clip-rule="evenodd" d="M145.94 17.3902C146.279 17.3917 146.617 17.3935 146.952 17.395C146.613 17.3932 146.277 17.3917 145.94 17.3902Z" fill="#111111"/>
<path fill-rule="evenodd" clip-rule="evenodd" d="M140.629 88.1044C140.123 88.105 139.617 88.106 139.111 88.1065C139.617 88.1055 140.123 88.105 140.629 88.1044Z" fill="#111111"/>
<path fill-rule="evenodd" clip-rule="evenodd" d="M71.6143 5.33203C71.591 5.84043 71.5677 6.34883 71.5439 6.85547C71.5667 6.34663 71.5905 5.83911 71.6143 5.33203Z" fill="#111111"/>
<path fill-rule="evenodd" clip-rule="evenodd" d="M228.346 91.6602C228.508 92.2251 228.272 92.3187 227.637 91.9409C227.873 91.8473 228.11 91.7537 228.346 91.6602Z" fill="#111111"/>
<path fill-rule="evenodd" clip-rule="evenodd" d="M213.979 135.964C214.232 135.966 214.486 135.968 214.737 135.969C214.483 135.968 214.231 135.966 213.979 135.964Z" fill="#111111"/>
<path fill-rule="evenodd" clip-rule="evenodd" d="M165.922 95.0943C165.498 95.4187 165.076 95.4644 164.657 95.077C165.079 95.0831 165.5 95.0887 165.922 95.0943Z" fill="#111111"/>
<path fill-rule="evenodd" clip-rule="evenodd" d="M156.453 51.7969C156.443 52.2208 156.432 52.6442 156.421 53.0664C156.431 52.6421 156.442 52.2195 156.453 51.7969Z" fill="#111111"/>
<path fill-rule="evenodd" clip-rule="evenodd" d="M178.315 12.6191C177.894 12.6188 177.472 12.6183 177.051 12.6178C177.473 12.4594 177.894 12.5114 178.315 12.6191Z" fill="#111111"/>
<path fill-rule="evenodd" clip-rule="evenodd" d="M65.0029 7.5334C64.6657 7.5047 64.3282 7.47576 63.9912 7.44707C64.3282 7.47576 64.6654 7.5047 65.0029 7.5334Z" fill="#111111"/>
<path fill-rule="evenodd" clip-rule="evenodd" d="M70.5674 7.93579C70.2303 8.06198 69.8931 8.13663 69.5557 7.93757C69.8931 7.93706 70.2303 7.9363 70.5674 7.93579Z" fill="#111111"/>
<path fill-rule="evenodd" clip-rule="evenodd" d="M40.4688 8.63104C40.0469 8.71712 39.6255 8.80319 39.2041 8.8885C39.6259 8.80319 40.0473 8.71712 40.4688 8.63104Z" fill="#111111"/>
<path fill-rule="evenodd" clip-rule="evenodd" d="M156.707 111.973C156.695 112.227 156.684 112.481 156.673 112.734C156.685 112.48 156.696 112.226 156.707 111.973Z" fill="#111111"/>
<path fill-rule="evenodd" clip-rule="evenodd" d="M17.3185 91.4062C17.3235 91.5759 17.3283 91.7455 17.3329 91.9141C17.3276 91.744 17.3233 91.5752 17.3185 91.4062Z" fill="#111111"/>
<path fill-rule="evenodd" clip-rule="evenodd" d="M229.913 90.4953L228.648 90.5019C229.069 90.1865 229.491 90.2266 229.913 90.4953Z" fill="#111111"/>
<path fill-rule="evenodd" clip-rule="evenodd" d="M143.411 88.6971C143.074 88.6412 142.736 88.5854 142.399 88.5295C142.736 88.5854 143.074 88.6412 143.411 88.6971Z" fill="#111111"/>
<path fill-rule="evenodd" clip-rule="evenodd" d="M50.8389 147.77C50.4172 147.688 49.9959 147.605 49.5742 147.523L50.8389 147.77Z" fill="#111111"/>
<path fill-rule="evenodd" clip-rule="evenodd" d="M135.961 74.9023C135.954 74.6481 135.946 74.3939 135.938 74.1406C135.946 74.3948 135.954 74.6487 135.961 74.9023Z" fill="#111111"/>
<path fill-rule="evenodd" clip-rule="evenodd" d="M97.3779 1.25798C97.125 1.18104 96.8718 1.10411 96.6191 1.02718C96.8721 1.10411 97.125 1.18104 97.3779 1.25798Z" fill="#111111"/>
<path fill-rule="evenodd" clip-rule="evenodd" d="M127.477 172.514C127.646 172.524 127.815 172.535 127.982 172.545C127.812 172.534 127.644 172.524 127.477 172.514Z" fill="#111111"/>
<path fill-rule="evenodd" clip-rule="evenodd" d="M11.3818 36.1715C11.6358 36.1781 11.8897 36.1849 12.1406 36.1918C11.8854 36.1849 11.6336 36.1781 11.3818 36.1715Z" fill="#111111"/>
<path fill-rule="evenodd" clip-rule="evenodd" d="M181.098 12.8669C180.676 12.8372 180.255 12.8075 179.833 12.7776C180.255 12.8075 180.676 12.8372 181.098 12.8669Z" fill="#111111"/>
<path fill-rule="evenodd" clip-rule="evenodd" d="M47.8037 11.6782C47.2121 11.6792 46.6213 11.6802 46.0332 11.6812C46.626 11.6802 47.2148 11.6792 47.8037 11.6782Z" fill="#111111"/>
<path fill-rule="evenodd" clip-rule="evenodd" d="M167.301 63.9844C167.308 64.4081 167.317 64.8319 167.325 65.2539C167.318 64.8299 167.31 64.407 167.301 63.9844Z" fill="#111111"/>
<path fill-rule="evenodd" clip-rule="evenodd" d="M136.329 154.891C135.991 154.886 135.653 154.88 135.317 154.875C135.656 154.879 135.993 154.885 136.329 154.891Z" fill="#111111"/>
<path fill-rule="evenodd" clip-rule="evenodd" d="M172.245 20.3617C172.751 20.3053 173.257 20.249 173.763 20.1926C173.277 20.6237 172.753 20.3368 172.245 20.3617Z" fill="#111111"/>
<path fill-rule="evenodd" clip-rule="evenodd" d="M133.547 155.024C133.293 155.014 133.04 155.005 132.788 154.996C133.043 155.005 133.295 155.014 133.547 155.024Z" fill="#111111"/>
<path fill-rule="evenodd" clip-rule="evenodd" d="M124.802 159.453C124.814 159.877 124.827 160.301 124.84 160.723C124.828 160.298 124.815 159.876 124.802 159.453Z" fill="#111111"/>
<path fill-rule="evenodd" clip-rule="evenodd" d="M163.393 35.9525C163.73 35.921 164.067 35.8895 164.404 35.8583C164.096 36.0965 163.735 35.9571 163.393 35.9525Z" fill="#111111"/>
<path fill-rule="evenodd" clip-rule="evenodd" d="M52.8623 103.501C53.1995 103.563 53.5371 103.625 53.874 103.687C53.5368 103.625 53.1995 103.563 52.8623 103.501Z" fill="#111111"/>
<path fill-rule="evenodd" clip-rule="evenodd" d="M105.472 36.6905C105.892 36.3305 106.314 36.3696 106.736 36.6865C106.315 36.6875 105.893 36.689 105.472 36.6905Z" fill="#111111"/>
<path fill-rule="evenodd" clip-rule="evenodd" d="M89.6451 49.5117C89.6573 49.3424 89.6692 49.173 89.6821 49.0039C89.6704 49.1735 89.6578 49.3426 89.6451 49.5117Z" fill="#111111"/>
<path fill-rule="evenodd" clip-rule="evenodd" d="M163.261 44.6875C163.264 45.0266 163.268 45.3657 163.271 45.7031C163.268 45.3632 163.265 45.0254 163.261 44.6875Z" fill="#111111"/>
<path fill-rule="evenodd" clip-rule="evenodd" d="M51.6695 97.7618C52.2245 97.9508 53.3407 98.5212 53.9873 98.4456C54.505 98.3848 54.9318 97.7532 55.431 97.7539C56.7753 97.7556 56.5261 99.3157 55.8766 100.153C54.1199 102.418 50.1947 99.9621 51.6695 97.7618Z" fill="#111111"/>
<path fill-rule="evenodd" clip-rule="evenodd" d="M57.1563 89.6289C58.9896 90.1039 58.0765 94.152 56.5354 94.4303C54.7208 94.7582 54.4046 91.4668 54.7631 90.277C55.697 90.8339 55.1188 92.8211 56.2957 92.2719C57.044 91.9221 56.9302 90.3059 57.1563 89.6289Z" fill="#111111"/>
</g>
<defs>
<clipPath id="clip0_27_80">
<rect width="259" height="195" fill="white"/>
</clipPath>
</defs>
</svg>
